<svg width="151" height="53" viewBox="0 0 151 53" fill="none" xmlns="http://www.w3.org/2000/svg">
<path d="M58.043 13.7812V28H55.3574V13.7812H58.043ZM63.7754 19.9238V22.043H57.3398V19.9238H63.7754ZM64.5273 13.7812V15.9004H57.3398V13.7812H64.5273ZM70.6895 28.1953C69.8887 28.1953 69.1693 28.0651 68.5312 27.8047C67.8932 27.5443 67.3496 27.1829 66.9004 26.7207C66.4577 26.252 66.1159 25.7083 65.875 25.0898C65.6406 24.4648 65.5234 23.7943 65.5234 23.0781V22.6875C65.5234 21.8737 65.6406 21.1348 65.875 20.4707C66.1094 19.8001 66.4414 19.224 66.8711 18.7422C67.3008 18.2604 67.8151 17.8893 68.4141 17.6289C69.013 17.3685 69.6738 17.2383 70.3965 17.2383C71.1452 17.2383 71.806 17.3652 72.3789 17.6191C72.9518 17.8665 73.4303 18.2181 73.8145 18.6738C74.1986 19.1296 74.4883 19.6764 74.6836 20.3145C74.8789 20.946 74.9766 21.6458 74.9766 22.4141V23.498H66.6953V21.7207H72.4375V21.5254C72.4245 21.1152 72.3464 20.7409 72.2031 20.4023C72.0599 20.0573 71.8385 19.7839 71.5391 19.582C71.2396 19.3737 70.8522 19.2695 70.377 19.2695C69.9928 19.2695 69.6576 19.3542 69.3711 19.5234C69.0911 19.6862 68.8568 19.9206 68.668 20.2266C68.4857 20.526 68.349 20.8841 68.2578 21.3008C68.1667 21.7174 68.1211 22.1797 68.1211 22.6875V23.0781C68.1211 23.5208 68.1797 23.931 68.2969 24.3086C68.4206 24.6862 68.5996 25.015 68.834 25.2949C69.0749 25.5684 69.3613 25.7832 69.6934 25.9395C70.0319 26.0892 70.416 26.1641 70.8457 26.1641C71.3861 26.1641 71.8743 26.0599 72.3105 25.8516C72.7533 25.6367 73.1374 25.321 73.4629 24.9043L74.7617 26.252C74.5404 26.5775 74.2409 26.89 73.8633 27.1895C73.4922 27.4889 73.043 27.7331 72.5156 27.9219C71.9883 28.1042 71.3796 28.1953 70.6895 28.1953ZM79.2832 19.5918V28H76.7051V17.4336H79.1465L79.2832 19.5918ZM82.4961 17.3652L82.457 19.7676C82.3138 19.7415 82.151 19.722 81.9688 19.709C81.793 19.696 81.627 19.6895 81.4707 19.6895C81.0736 19.6895 80.7253 19.7448 80.4258 19.8555C80.1263 19.9596 79.8757 20.1126 79.6738 20.3145C79.4785 20.5163 79.3288 20.7637 79.2246 21.0566C79.1204 21.3431 79.0618 21.6686 79.0488 22.0332L78.4922 21.9648C78.4922 21.2943 78.5605 20.6725 78.6973 20.0996C78.834 19.5267 79.0326 19.0254 79.293 18.5957C79.5534 18.166 79.8789 17.834 80.2695 17.5996C80.6667 17.3587 81.1224 17.2383 81.6367 17.2383C81.7799 17.2383 81.9329 17.2513 82.0957 17.2773C82.265 17.2969 82.3984 17.3262 82.4961 17.3652ZM86.4414 19.6895V28H83.8633V17.4336H86.2852L86.4414 19.6895ZM86.0312 22.3359H85.2695C85.276 21.5677 85.3802 20.8711 85.582 20.2461C85.7839 19.6211 86.0671 19.084 86.4316 18.6348C86.8027 18.1855 87.2422 17.8405 87.75 17.5996C88.2578 17.3587 88.8242 17.2383 89.4492 17.2383C89.957 17.2383 90.416 17.3099 90.8262 17.4531C91.2363 17.5964 91.5879 17.8242 91.8809 18.1367C92.1803 18.4492 92.4082 18.8594 92.5645 19.3672C92.7272 19.8685 92.8086 20.487 92.8086 21.2227V28H90.2109V21.2031C90.2109 20.7214 90.1393 20.3405 89.9961 20.0605C89.8594 19.7806 89.6576 19.582 89.3906 19.4648C89.1302 19.3477 88.8079 19.2891 88.4238 19.2891C88.0267 19.2891 87.6784 19.3704 87.3789 19.5332C87.0859 19.6895 86.8385 19.9076 86.6367 20.1875C86.4414 20.4674 86.2917 20.7897 86.1875 21.1543C86.0833 21.5189 86.0312 21.9128 86.0312 22.3359ZM100.904 25.7539V20.8809C100.904 20.5228 100.842 20.2135 100.719 19.9531C100.595 19.6927 100.406 19.4909 100.152 19.3477C99.8984 19.2044 99.5762 19.1328 99.1855 19.1328C98.8405 19.1328 98.5378 19.1914 98.2773 19.3086C98.0234 19.4258 97.8281 19.5918 97.6914 19.8066C97.5547 20.015 97.4863 20.2559 97.4863 20.5293H94.8984C94.8984 20.0931 95.0026 19.6797 95.2109 19.2891C95.4193 18.8919 95.7155 18.5404 96.0996 18.2344C96.4902 17.9219 96.9557 17.6777 97.4961 17.502C98.043 17.3262 98.6549 17.2383 99.332 17.2383C100.133 17.2383 100.846 17.375 101.471 17.6484C102.102 17.9154 102.597 18.319 102.955 18.8594C103.32 19.3997 103.502 20.0801 103.502 20.9004V25.5098C103.502 26.0371 103.535 26.4896 103.6 26.8672C103.671 27.2383 103.775 27.5605 103.912 27.834V28H101.285C101.161 27.7331 101.067 27.3945 101.002 26.9844C100.937 26.5677 100.904 26.1576 100.904 25.7539ZM101.266 21.5645L101.285 23.0977H99.6543C99.2507 23.0977 98.8958 23.14 98.5898 23.2246C98.2839 23.3027 98.0332 23.4199 97.8379 23.5762C97.6426 23.7259 97.4961 23.9082 97.3984 24.123C97.3008 24.3314 97.252 24.569 97.252 24.8359C97.252 25.0964 97.3105 25.3307 97.4277 25.5391C97.5514 25.7474 97.7272 25.9134 97.9551 26.0371C98.1895 26.1543 98.4629 26.2129 98.7754 26.2129C99.2311 26.2129 99.6283 26.1217 99.9668 25.9395C100.305 25.7507 100.569 25.5228 100.758 25.2559C100.947 24.9889 101.048 24.735 101.061 24.4941L101.803 25.6074C101.712 25.8743 101.575 26.1576 101.393 26.457C101.21 26.7565 100.976 27.0365 100.689 27.2969C100.403 27.5573 100.058 27.7721 99.6543 27.9414C99.2507 28.1107 98.7819 28.1953 98.248 28.1953C97.5645 28.1953 96.9525 28.0586 96.4121 27.7852C95.8717 27.5117 95.4453 27.1374 95.1328 26.6621C94.8203 26.1868 94.6641 25.6465 94.6641 25.041C94.6641 24.4811 94.7682 23.9863 94.9766 23.5566C95.1849 23.127 95.4941 22.7656 95.9043 22.4727C96.3145 22.1732 96.8223 21.9486 97.4277 21.7988C98.0397 21.6426 98.7396 21.5645 99.5273 21.5645H101.266ZM108.355 19.6895V28H105.777V17.4336H108.199L108.355 19.6895ZM107.945 22.3359H107.184C107.19 21.5677 107.294 20.8711 107.496 20.2461C107.698 19.6211 107.981 19.084 108.346 18.6348C108.717 18.1855 109.156 17.8405 109.664 17.5996C110.172 17.3587 110.738 17.2383 111.363 17.2383C111.871 17.2383 112.33 17.3099 112.74 17.4531C113.15 17.5964 113.502 17.8242 113.795 18.1367C114.094 18.4492 114.322 18.8594 114.479 19.3672C114.641 19.8685 114.723 20.487 114.723 21.2227V28H112.125V21.2031C112.125 20.7214 112.053 20.3405 111.91 20.0605C111.773 19.7806 111.572 19.582 111.305 19.4648C111.044 19.3477 110.722 19.2891 110.338 19.2891C109.941 19.2891 109.592 19.3704 109.293 19.5332C109 19.6895 108.753 19.9076 108.551 20.1875C108.355 20.4674 108.206 20.7897 108.102 21.1543C107.997 21.5189 107.945 21.9128 107.945 22.3359ZM123.336 25.7539V13H125.934V28H123.59L123.336 25.7539ZM116.549 22.8438V22.6387C116.549 21.8314 116.64 21.099 116.822 20.4414C117.011 19.7773 117.285 19.2077 117.643 18.7324C118.001 18.2572 118.434 17.8893 118.941 17.6289C119.456 17.3685 120.038 17.2383 120.689 17.2383C121.321 17.2383 121.871 17.3652 122.34 17.6191C122.815 17.873 123.219 18.2344 123.551 18.7031C123.889 19.1719 124.16 19.7285 124.361 20.373C124.563 21.0111 124.71 21.7142 124.801 22.4824V23.0391C124.71 23.7878 124.563 24.4746 124.361 25.0996C124.16 25.7246 123.889 26.2715 123.551 26.7402C123.219 27.2025 122.815 27.5605 122.34 27.8145C121.865 28.0684 121.308 28.1953 120.67 28.1953C120.025 28.1953 119.446 28.0618 118.932 27.7949C118.424 27.528 117.991 27.1536 117.633 26.6719C117.281 26.1901 117.011 25.6237 116.822 24.9727C116.64 24.3216 116.549 23.612 116.549 22.8438ZM119.137 22.6387V22.8438C119.137 23.2995 119.176 23.7259 119.254 24.123C119.332 24.5202 119.459 24.8717 119.635 25.1777C119.811 25.4772 120.035 25.7116 120.309 25.8809C120.589 26.0501 120.927 26.1348 121.324 26.1348C121.832 26.1348 122.249 26.0241 122.574 25.8027C122.906 25.5749 123.163 25.2656 123.346 24.875C123.528 24.4779 123.645 24.0319 123.697 23.5371V22.0039C123.671 21.6133 123.603 21.252 123.492 20.9199C123.388 20.5879 123.238 20.3014 123.043 20.0605C122.854 19.8197 122.62 19.6309 122.34 19.4941C122.06 19.3574 121.728 19.2891 121.344 19.2891C120.947 19.2891 120.608 19.377 120.328 19.5527C120.048 19.722 119.82 19.9596 119.645 20.2656C119.469 20.5716 119.339 20.9264 119.254 21.3301C119.176 21.7337 119.137 22.1699 119.137 22.6387ZM127.809 22.8242V22.6191C127.809 21.8444 127.919 21.1315 128.141 20.4805C128.362 19.8229 128.684 19.2533 129.107 18.7715C129.531 18.2897 130.048 17.9154 130.66 17.6484C131.272 17.375 131.969 17.2383 132.75 17.2383C133.544 17.2383 134.247 17.375 134.859 17.6484C135.478 17.9154 135.999 18.2897 136.422 18.7715C136.845 19.2533 137.167 19.8229 137.389 20.4805C137.61 21.1315 137.721 21.8444 137.721 22.6191V22.8242C137.721 23.5924 137.61 24.3053 137.389 24.9629C137.167 25.6139 136.845 26.1836 136.422 26.6719C135.999 27.1536 135.481 27.528 134.869 27.7949C134.257 28.0618 133.557 28.1953 132.77 28.1953C131.988 28.1953 131.288 28.0618 130.67 27.7949C130.051 27.528 129.531 27.1536 129.107 26.6719C128.684 26.1836 128.362 25.6139 128.141 24.9629C127.919 24.3053 127.809 23.5924 127.809 22.8242ZM130.387 22.6191V22.8242C130.387 23.2865 130.432 23.7194 130.523 24.123C130.615 24.5267 130.755 24.8815 130.943 25.1875C131.132 25.4935 131.376 25.7344 131.676 25.9102C131.982 26.0794 132.346 26.1641 132.77 26.1641C133.186 26.1641 133.544 26.0794 133.844 25.9102C134.143 25.7344 134.387 25.4935 134.576 25.1875C134.771 24.8815 134.915 24.5267 135.006 24.123C135.097 23.7194 135.143 23.2865 135.143 22.8242V22.6191C135.143 22.1634 135.097 21.737 135.006 21.3398C134.915 20.9362 134.771 20.5814 134.576 20.2754C134.387 19.9629 134.14 19.7188 133.834 19.543C133.535 19.3607 133.173 19.2695 132.75 19.2695C132.333 19.2695 131.975 19.3607 131.676 19.543C131.376 19.7188 131.132 19.9629 130.943 20.2754C130.755 20.5814 130.615 20.9362 130.523 21.3398C130.432 21.737 130.387 22.1634 130.387 22.6191ZM141.051 13V14.4355C141.051 14.8457 140.973 15.2754 140.816 15.7246C140.667 16.1673 140.458 16.5905 140.191 16.9941C139.931 17.3913 139.635 17.7331 139.303 18.0195L138.053 17.2676C138.313 16.8704 138.525 16.4473 138.688 15.998C138.857 15.5423 138.941 15.0247 138.941 14.4453V13H141.051ZM147.223 25.1094C147.223 24.888 147.164 24.6895 147.047 24.5137C146.93 24.3379 146.708 24.1784 146.383 24.0352C146.064 23.8854 145.595 23.7454 144.977 23.6152C144.43 23.498 143.925 23.3516 143.463 23.1758C143.001 23 142.604 22.7884 142.271 22.541C141.939 22.2871 141.679 21.9909 141.49 21.6523C141.308 21.3073 141.217 20.9102 141.217 20.4609C141.217 20.0247 141.311 19.6146 141.5 19.2305C141.689 18.8398 141.962 18.498 142.32 18.2051C142.678 17.9056 143.115 17.6712 143.629 17.502C144.143 17.3262 144.723 17.2383 145.367 17.2383C146.266 17.2383 147.037 17.3848 147.682 17.6777C148.333 17.9707 148.831 18.3743 149.176 18.8887C149.521 19.3965 149.693 19.9694 149.693 20.6074H147.115C147.115 20.3275 147.05 20.0736 146.92 19.8457C146.796 19.6178 146.604 19.4355 146.344 19.2988C146.083 19.1556 145.755 19.084 145.357 19.084C144.999 19.084 144.697 19.1426 144.449 19.2598C144.208 19.377 144.026 19.5299 143.902 19.7188C143.779 19.9076 143.717 20.1159 143.717 20.3438C143.717 20.513 143.749 20.666 143.814 20.8027C143.886 20.9329 144 21.0534 144.156 21.1641C144.312 21.2747 144.524 21.3757 144.791 21.4668C145.064 21.5579 145.4 21.6458 145.797 21.7305C146.585 21.8867 147.271 22.0951 147.857 22.3555C148.45 22.6094 148.912 22.9479 149.244 23.3711C149.576 23.7943 149.742 24.3346 149.742 24.9922C149.742 25.4609 149.641 25.8906 149.439 26.2812C149.238 26.6654 148.945 27.0007 148.561 27.2871C148.176 27.5736 147.717 27.7982 147.184 27.9609C146.65 28.1172 146.048 28.1953 145.377 28.1953C144.407 28.1953 143.587 28.0228 142.916 27.6777C142.245 27.3262 141.738 26.8835 141.393 26.3496C141.048 25.8092 140.875 25.2493 140.875 24.6699H143.346C143.365 25.0801 143.476 25.4089 143.678 25.6562C143.88 25.9036 144.133 26.0827 144.439 26.1934C144.752 26.2975 145.081 26.3496 145.426 26.3496C145.816 26.3496 146.145 26.2975 146.412 26.1934C146.679 26.0827 146.881 25.9362 147.018 25.7539C147.154 25.5651 147.223 25.3503 147.223 25.1094Z" fill="white"/>
<path d="M60.0234 43.7578C60.0234 43.5495 59.9766 43.3568 59.8828 43.1797C59.7943 42.9974 59.6094 42.8333 59.3281 42.6875C59.0521 42.5365 58.6354 42.4062 58.0781 42.2969C57.6094 42.1979 57.1849 42.0807 56.8047 41.9453C56.4297 41.8099 56.1094 41.6458 55.8438 41.4531C55.5833 41.2604 55.3828 41.0339 55.2422 40.7734C55.1016 40.513 55.0312 40.2083 55.0312 39.8594C55.0312 39.526 55.1042 39.2109 55.25 38.9141C55.401 38.6172 55.612 38.3542 55.8828 38.125C56.1589 37.8958 56.4896 37.7161 56.875 37.5859C57.2604 37.4557 57.6901 37.3906 58.1641 37.3906C58.8411 37.3906 59.4193 37.5104 59.8984 37.75C60.3776 37.9896 60.7448 38.3099 61 38.7109C61.2552 39.1068 61.3828 39.5469 61.3828 40.0312H59.9375C59.9375 39.7969 59.8672 39.5703 59.7266 39.3516C59.5911 39.1276 59.3906 38.9427 59.125 38.7969C58.8646 38.651 58.5443 38.5781 58.1641 38.5781C57.763 38.5781 57.4375 38.6406 57.1875 38.7656C56.9427 38.8854 56.763 39.0391 56.6484 39.2266C56.5391 39.4141 56.4844 39.612 56.4844 39.8203C56.4844 39.9766 56.5104 40.1172 56.5625 40.2422C56.6198 40.362 56.7188 40.474 56.8594 40.5781C57 40.6771 57.1979 40.7708 57.4531 40.8594C57.7083 40.9479 58.0339 41.0365 58.4297 41.125C59.1224 41.2812 59.6927 41.4688 60.1406 41.6875C60.5885 41.9062 60.9219 42.1745 61.1406 42.4922C61.3594 42.8099 61.4688 43.1953 61.4688 43.6484C61.4688 44.0182 61.3906 44.3568 61.2344 44.6641C61.0833 44.9714 60.862 45.237 60.5703 45.4609C60.2839 45.6797 59.9401 45.8516 59.5391 45.9766C59.1432 46.0964 58.6979 46.1562 58.2031 46.1562C57.4583 46.1562 56.8281 46.0234 56.3125 45.7578C55.7969 45.4922 55.4062 45.1484 55.1406 44.7266C54.875 44.3047 54.7422 43.8594 54.7422 43.3906H56.1953C56.2161 43.7865 56.3307 44.1016 56.5391 44.3359C56.7474 44.5651 57.0026 44.7292 57.3047 44.8281C57.6068 44.9219 57.9062 44.9688 58.2031 44.9688C58.599 44.9688 58.9297 44.9167 59.1953 44.8125C59.4661 44.7083 59.6719 44.5651 59.8125 44.3828C59.9531 44.2005 60.0234 43.9922 60.0234 43.7578ZM64.8125 34V46H63.3672V34H64.8125ZM64.4688 41.4531L63.8672 41.4297C63.8724 40.8516 63.9583 40.3177 64.125 39.8281C64.2917 39.3333 64.526 38.9036 64.8281 38.5391C65.1302 38.1745 65.4896 37.8932 65.9062 37.6953C66.3281 37.4922 66.7943 37.3906 67.3047 37.3906C67.7214 37.3906 68.0964 37.4479 68.4297 37.5625C68.763 37.6719 69.0469 37.849 69.2812 38.0938C69.5208 38.3385 69.7031 38.6562 69.8281 39.0469C69.9531 39.4323 70.0156 39.9036 70.0156 40.4609V46H68.5625V40.4453C68.5625 40.0026 68.4974 39.6484 68.3672 39.3828C68.237 39.112 68.0469 38.9167 67.7969 38.7969C67.5469 38.6719 67.2396 38.6094 66.875 38.6094C66.5156 38.6094 66.1875 38.6849 65.8906 38.8359C65.599 38.987 65.3464 39.1953 65.1328 39.4609C64.9245 39.7266 64.7604 40.0312 64.6406 40.375C64.526 40.7135 64.4688 41.0729 64.4688 41.4531ZM71.7969 41.8672V41.6875C71.7969 41.0781 71.8854 40.513 72.0625 39.9922C72.2396 39.4661 72.4948 39.0104 72.8281 38.625C73.1615 38.2344 73.5651 37.9323 74.0391 37.7188C74.513 37.5 75.0443 37.3906 75.6328 37.3906C76.2266 37.3906 76.7604 37.5 77.2344 37.7188C77.7135 37.9323 78.1198 38.2344 78.4531 38.625C78.7917 39.0104 79.0495 39.4661 79.2266 39.9922C79.4036 40.513 79.4922 41.0781 79.4922 41.6875V41.8672C79.4922 42.4766 79.4036 43.0417 79.2266 43.5625C79.0495 44.0833 78.7917 44.5391 78.4531 44.9297C78.1198 45.3151 77.7161 45.6172 77.2422 45.8359C76.7734 46.0495 76.2422 46.1562 75.6484 46.1562C75.0547 46.1562 74.5208 46.0495 74.0469 45.8359C73.5729 45.6172 73.1667 45.3151 72.8281 44.9297C72.4948 44.5391 72.2396 44.0833 72.0625 43.5625C71.8854 43.0417 71.7969 42.4766 71.7969 41.8672ZM73.2422 41.6875V41.8672C73.2422 42.2891 73.2917 42.6875 73.3906 43.0625C73.4896 43.4323 73.638 43.7604 73.8359 44.0469C74.0391 44.3333 74.2917 44.5599 74.5938 44.7266C74.8958 44.888 75.2474 44.9688 75.6484 44.9688C76.0443 44.9688 76.3906 44.888 76.6875 44.7266C76.9896 44.5599 77.2396 44.3333 77.4375 44.0469C77.6354 43.7604 77.7839 43.4323 77.8828 43.0625C77.987 42.6875 78.0391 42.2891 78.0391 41.8672V41.6875C78.0391 41.2708 77.987 40.8776 77.8828 40.5078C77.7839 40.1328 77.6328 39.8021 77.4297 39.5156C77.2318 39.224 76.9818 38.9948 76.6797 38.8281C76.3828 38.6615 76.0339 38.5781 75.6328 38.5781C75.237 38.5781 74.888 38.6615 74.5859 38.8281C74.2891 38.9948 74.0391 39.224 73.8359 39.5156C73.638 39.8021 73.4896 40.1328 73.3906 40.5078C73.2917 40.8776 73.2422 41.2708 73.2422 41.6875ZM82.75 39.1719V49.25H81.2969V37.5469H82.625L82.75 39.1719ZM88.4453 41.7031V41.8672C88.4453 42.4818 88.3724 43.0521 88.2266 43.5781C88.0807 44.099 87.8672 44.5521 87.5859 44.9375C87.3099 45.3229 86.9688 45.6224 86.5625 45.8359C86.1562 46.0495 85.6901 46.1562 85.1641 46.1562C84.6276 46.1562 84.1536 46.0677 83.7422 45.8906C83.3307 45.7135 82.9818 45.4557 82.6953 45.1172C82.4089 44.7786 82.1797 44.3724 82.0078 43.8984C81.8411 43.4245 81.7266 42.8906 81.6641 42.2969V41.4219C81.7266 40.7969 81.8438 40.237 82.0156 39.7422C82.1875 39.2474 82.4141 38.8255 82.6953 38.4766C82.9818 38.1224 83.3281 37.8542 83.7344 37.6719C84.1406 37.4844 84.6094 37.3906 85.1406 37.3906C85.6719 37.3906 86.1432 37.4948 86.5547 37.7031C86.9661 37.9062 87.3125 38.1979 87.5938 38.5781C87.875 38.9583 88.0859 39.4141 88.2266 39.9453C88.3724 40.4714 88.4453 41.0573 88.4453 41.7031ZM86.9922 41.8672V41.7031C86.9922 41.2812 86.9479 40.8854 86.8594 40.5156C86.7708 40.1406 86.6328 39.8125 86.4453 39.5312C86.263 39.2448 86.0286 39.0208 85.7422 38.8594C85.4557 38.6927 85.1146 38.6094 84.7188 38.6094C84.3542 38.6094 84.0365 38.6719 83.7656 38.7969C83.5 38.9219 83.2734 39.0911 83.0859 39.3047C82.8984 39.513 82.7448 39.7526 82.625 40.0234C82.5104 40.2891 82.4245 40.5651 82.3672 40.8516V42.875C82.4714 43.2396 82.6172 43.5833 82.8047 43.9062C82.9922 44.224 83.2422 44.4818 83.5547 44.6797C83.8672 44.8724 84.2604 44.9688 84.7344 44.9688C85.125 44.9688 85.4609 44.888 85.7422 44.7266C86.0286 44.5599 86.263 44.3333 86.4453 44.0469C86.6328 43.7604 86.7708 43.4323 86.8594 43.0625C86.9479 42.6875 86.9922 42.2891 86.9922 41.8672Z" fill="white"/>
<path d="M45.1222 12.958C44.9696 12.7754 44.7789 12.6286 44.5634 12.5279C44.3479 12.4271 44.1129 12.375 43.875 12.375H11.1069L10.1136 6.91906C9.97755 6.17021 9.58299 5.49286 8.99872 5.0051C8.41444 4.51734 7.67751 4.25011 6.91641 4.25H3.25C2.81902 4.25 2.4057 4.4212 2.10095 4.72595C1.7962 5.0307 1.625 5.44402 1.625 5.875C1.625 6.30598 1.7962 6.7193 2.10095 7.02405C2.4057 7.32879 2.81902 7.5 3.25 7.5H6.90625L12.0981 35.9964C12.2511 36.8415 12.6245 37.6312 13.1808 38.2856C12.4131 39.0027 11.8589 39.9184 11.5799 40.9311C11.3008 41.9439 11.3077 43.0142 11.5997 44.0233C11.8918 45.0324 12.4576 45.9409 13.2345 46.648C14.0113 47.3552 14.9689 47.8333 16.0009 48.0295C17.0329 48.2257 18.0991 48.1322 19.0813 47.7594C20.0634 47.3866 20.9231 46.7491 21.5651 45.9176C22.207 45.086 22.6061 44.0929 22.7181 43.0484C22.8301 42.0039 22.6506 40.9487 22.1995 40H31.4255C31.0619 40.7611 30.8738 41.594 30.875 42.4375C30.875 43.5624 31.2086 44.662 31.8335 45.5973C32.4585 46.5326 33.3467 47.2616 34.386 47.6921C35.4252 48.1225 36.5688 48.2352 37.6721 48.0157C38.7753 47.7963 39.7888 47.2546 40.5842 46.4592C41.3796 45.6638 41.9213 44.6503 42.1407 43.5471C42.3602 42.4438 42.2475 41.3002 41.8171 40.261C41.3866 39.2217 40.6576 38.3335 39.7223 37.7085C38.787 37.0836 37.6874 36.75 36.5625 36.75H16.8939C16.5134 36.7499 16.1449 36.6163 15.8528 36.3724C15.5606 36.1286 15.3633 35.7899 15.2953 35.4155L14.6514 31.875H38.2139C39.3556 31.8748 40.461 31.474 41.3374 30.7423C42.2138 30.0107 42.8056 28.9947 43.0097 27.8714L45.4797 14.2905C45.5215 14.0557 45.5112 13.8147 45.4494 13.5844C45.3876 13.3541 45.2759 13.1402 45.1222 12.958ZM19.5 42.4375C19.5 42.9196 19.357 43.3909 19.0892 43.7917C18.8214 44.1925 18.4407 44.505 17.9953 44.6895C17.5499 44.8739 17.0598 44.9222 16.587 44.8282C16.1141 44.7341 15.6798 44.502 15.3389 44.1611C14.998 43.8202 14.7659 43.3859 14.6718 42.913C14.5778 42.4402 14.6261 41.9501 14.8105 41.5047C14.995 41.0593 15.3075 40.6786 15.7083 40.4108C16.1091 40.143 16.5804 40 17.0625 40C17.709 40 18.329 40.2568 18.7861 40.7139C19.2432 41.171 19.5 41.791 19.5 42.4375ZM39 42.4375C39 42.9196 38.857 43.3909 38.5892 43.7917C38.3214 44.1925 37.9407 44.505 37.4953 44.6895C37.0499 44.8739 36.5598 44.9222 36.087 44.8282C35.6141 44.7341 35.1798 44.502 34.8389 44.1611C34.498 43.8202 34.2659 43.3859 34.1718 42.913C34.0778 42.4402 34.1261 41.9501 34.3105 41.5047C34.495 41.0593 34.8075 40.6786 35.2083 40.4108C35.6091 40.143 36.0804 40 36.5625 40C37.209 40 37.829 40.2568 38.2861 40.7139C38.7432 41.171 39 41.791 39 42.4375ZM39.8125 27.2905C39.7443 27.6659 39.5461 28.0054 39.2527 28.2494C38.9593 28.4934 38.5894 28.6264 38.2078 28.625H14.0603L11.698 15.625H41.927L39.8125 27.2905Z" fill="#00B37E"/>
</svg>
